<!DOCTYPE svg PUBLIC "-//W3C//DTD SVG 1.1//EN" "http://www.w3.org/Graphics/SVG/1.1/DTD/svg11.dtd">
<svg width="100%" height="100%" viewBox="0 0 142 142" version="1.1" xmlns="http://www.w3.org/2000/svg" xmlnsXlink="http://www.w3.org/1999/xlink" xmlSpace="preserve" xmlnsSerif="http://www.serif.com/" style="fill-rule:evenodd;clip-rule:evenodd;stroke-linejoin:round;stroke-miterlimit:2;">
    <g id="Layer-1" serifId="Layer 1" transform="matrix(1,0,0,1,-89.8509,-458.418)">
        <path id="path302" d="M100.37,598.876C96.795,597.33 92.928,592.989 91.277,588.666C89.864,584.966 89.851,584.698 89.851,558.719C89.851,532.739 89.864,532.471 91.277,528.771C92.571,525.385 97.122,519.582 98.485,519.582C98.789,519.582 97.798,517.901 96.283,515.847C94.768,513.793 92.766,510.221 91.835,507.909C90.308,504.117 90.142,502.946 90.142,495.952C90.142,488.774 90.285,487.832 92.065,483.251C94.511,476.956 98.486,472.111 103.65,469.129C107.407,466.958 108.18,466.785 114.069,466.785C119.789,466.785 120.772,466.99 123.836,468.825C130.548,472.844 134.832,478.921 137.129,487.68C138.188,491.719 138.235,491.781 138.266,489.188C138.309,485.603 140.202,478.332 142.144,474.293C143.004,472.505 145.217,469.361 147.062,467.305C164.736,447.613 192.816,462.764 192.816,491.992C192.816,500.965 189.184,511.157 184.131,516.364C182.875,517.659 182.487,518.452 183.006,518.667C184.987,519.487 189.018,524.022 190.683,527.302L192.513,530.909L192.686,557.723C192.854,583.859 192.825,584.631 191.541,588.27C189.942,592.801 185.935,597.304 182.074,598.907C178.039,600.583 104.254,600.555 100.37,598.876L100.37,598.876ZM124.245,579.247C124.645,578.759 124.972,577.497 124.972,576.441C124.972,573.082 124.114,572.749 115.476,572.749C107.566,572.749 107.417,572.779 106.441,574.595C105.522,576.305 105.522,576.577 106.441,578.287C107.417,580.102 107.566,580.133 115.476,580.133C120.924,580.133 123.753,579.847 124.245,579.247ZM145.041,513.859C142.356,509.96 139.7,503.937 139.127,500.45C138.594,497.201 137.918,497.627 137.484,501.486C137.036,505.473 134.754,511.18 132.18,514.755L130.298,517.367L147.457,517.367L145.041,513.859ZM116.584,507.01C119.597,505.99 122.907,501.401 123.449,497.494C123.786,495.061 123.582,493.72 122.454,490.948C120.576,486.336 117.815,484.138 113.899,484.138C108.28,484.138 104.377,488.895 104.377,495.746C104.377,500.448 106.168,503.862 109.81,506.106C112.854,507.98 113.474,508.063 116.584,507.01ZM171.465,505.638C179.3,500.74 180.72,487.792 174.244,480.3C166.247,471.047 152.836,478.074 152.836,491.516C152.836,503.706 162.652,511.147 171.465,505.638ZM217.954,592.945C216.955,592.307 212.389,589.133 207.808,585.891L199.479,579.996L199.479,537.455L207.202,531.941C217.85,524.339 219.697,523.274 222.239,523.274C225.263,523.274 228.756,525.835 230.3,529.184C231.541,531.876 231.583,532.839 231.583,558.719C231.583,584.598 231.541,585.561 230.3,588.253C227.908,593.442 222.159,595.627 217.954,592.945Z" style="fill-rule:nonzero;"/>
    </g>
</svg>
