<?xml version="1.0" encoding="UTF-8" standalone="no"?>
<!DOCTYPE svg PUBLIC "-//W3C//DTD SVG 1.1//EN" "http://www.w3.org/Graphics/SVG/1.1/DTD/svg11.dtd">
<svg width="100%" height="100%" viewBox="0 0 142 142" version="1.1" xmlns="http://www.w3.org/2000/svg" xmlnsXlink="http://www.w3.org/1999/xlink" xmlSpace="preserve" xmlnsSerif="http://www.serif.com/" style="fill-rule:evenodd;clip-rule:evenodd;stroke-linejoin:round;stroke-miterlimit:2;">
    <g id="Layer-1" serifId="Layer 1" transform="matrix(1,0,0,1,-134.25,-185.629)">
        <path id="path321" d="M158.126,327.049C148.026,325.64 139.527,320.049 136.174,312.609C132.041,303.438 134.868,282.261 141.777,270.629C145.926,263.645 150.178,259.859 157.065,257.014C161.676,255.11 163.421,254.694 167.859,254.44C173.807,254.1 174.176,254.208 182.345,258.653C189.429,262.507 195.694,264.321 203.134,264.67C212.495,265.111 218.764,263.498 229.269,257.947C234.904,254.97 236.03,254.585 239.707,254.383C248.016,253.925 258.293,257.983 263.749,263.877C267.804,268.258 271.673,275.628 273.536,282.519C275.457,289.627 276.489,301.073 275.734,306.899C274.468,316.672 266.271,324.261 254.477,326.578C250.872,327.286 243.224,327.406 205.001,327.349C180.134,327.312 159.04,327.177 158.126,327.049ZM194.174,252.924C180.43,250.15 168.061,239.883 164.43,228.234C162.87,223.23 163.329,213.218 165.33,208.599C173.814,189.014 200.438,180.037 222.62,189.282C229.583,192.184 237.382,198.7 240.719,204.405C245.403,212.412 246.32,221.736 243.236,230.013C239.229,240.768 226.956,250.31 213.807,252.894C208.79,253.88 198.987,253.895 194.174,252.923L194.174,252.924Z" style="fill-rule:nonzero;"/>
    </g>
</svg>
