<?xml version="1.0" encoding="UTF-8" standalone="no"?>
<!DOCTYPE svg PUBLIC "-//W3C//DTD SVG 1.1//EN" "http://www.w3.org/Graphics/SVG/1.1/DTD/svg11.dtd">
<svg width="100%" height="100%" viewBox="0 0 142 142" version="1.1" xmlns="http://www.w3.org/2000/svg" xmlnsXlink="http://www.w3.org/1999/xlink" xmlSpace="preserve" xmlnsSerif="http://www.serif.com/" style="fill-rule:evenodd;clip-rule:evenodd;stroke-linejoin:round;stroke-miterlimit:2;">
    <g id="Layer-1" serifId="Layer 1" transform="matrix(1,0,0,1,-101.641,-302.365)">
        <path id="path340" d="M110.142,443.607C106.769,442.66 102.953,438.522 102.075,434.859C100.114,426.674 104.835,413.297 115.424,397.042L119.392,390.95L118.523,387.485C113.825,368.763 118.653,349.307 131.483,335.254C135.567,330.781 142.573,325.659 148.38,322.9C166.882,314.111 187.871,315.89 204.928,327.693C209.689,330.987 215.621,337.02 218.74,341.739L220.879,344.975L223.678,340.35C227.802,333.537 232.269,323.876 233.317,319.507C234.118,316.167 234.136,315.465 233.456,314.041C232.763,312.588 232.362,312.389 229.832,312.241C226.558,312.051 222.37,313.314 215.119,316.68C212.473,317.908 210.102,318.823 209.85,318.713C209.597,318.604 207.449,317.425 205.074,316.094C201.684,314.194 200.888,313.518 201.365,312.942C202.39,311.706 216.35,305.053 220.761,303.698C226.489,301.938 233.396,301.919 236.653,303.653C243.599,307.351 245.169,315.043 241.324,326.531C228.807,363.927 163.179,429.577 125.77,442.123C120.103,444.023 113.768,444.625 110.142,443.607L110.142,443.607ZM122.049,433.113C126.245,431.734 134.972,427.418 140.397,424.038L144.295,421.61L141.068,419.489C136.987,416.805 128.944,408.801 126.493,404.985C125.463,403.382 124.425,402.07 124.186,402.07C123.088,402.07 114.482,418.356 112.62,423.957C111.186,428.272 110.927,432.083 111.983,433.356C113.058,434.653 117.704,434.54 122.049,433.113L122.049,433.113ZM168.625,428.838C168.625,428.598 169.908,427.442 171.476,426.27C185.854,415.526 210.087,391.468 223.814,374.311C225.89,371.715 227.8,369.508 228.058,369.406C228.789,369.118 228.603,375.709 227.716,381.528C223.99,405.969 205.244,424.734 180.827,428.463C175.104,429.337 168.625,429.536 168.625,428.838Z" style="fill-rule:nonzero;"/>
    </g>
</svg>
