<?xml version="1.0" encoding="UTF-8" standalone="no"?>
<!DOCTYPE svg PUBLIC "-//W3C//DTD SVG 1.1//EN" "http://www.w3.org/Graphics/SVG/1.1/DTD/svg11.dtd">
<svg width="100%" height="100%" viewBox="0 0 142 142" version="1.1" xmlns="http://www.w3.org/2000/svg" xmlnsXlink="http://www.w3.org/1999/xlink" xmlSpace="preserve" xmlnsSerif="http://www.serif.com/" style="fill-rule:evenodd;clip-rule:evenodd;stroke-linejoin:round;stroke-miterlimit:2;">
    <g id="Layer-1" serifId="Layer 1" transform="matrix(1,0,0,1,-22.9899,-251.539)">
        <path id="path359" d="M67.281,379.24C56.118,368.156 52.526,364.918 50.118,363.77C41.571,359.695 33.692,359.67 23.917,363.685C22.948,364.083 22.914,363.376 23.107,346.738C23.3,330.04 23.359,329.226 24.656,325.502C25.397,323.372 27.007,320.134 28.234,318.306C29.46,316.477 38.304,305.96 47.887,294.932L65.309,274.883L122.403,274.883L139.825,294.932C149.408,305.96 158.252,316.477 159.478,318.306C160.705,320.134 162.315,323.372 163.057,325.502C164.353,329.226 164.412,330.04 164.606,346.738C164.798,363.376 164.765,364.083 163.796,363.685C154.02,359.67 146.138,359.695 137.594,363.771C135.19,364.918 131.572,368.175 120.408,379.247L106.267,393.27L98.285,393.27L98.285,384.679L105.206,377.78L112.126,370.882L112.126,348.588L119.462,348.335C127.769,348.049 131.207,347.066 135.588,343.724C141.166,339.468 144.151,333.589 144.653,325.868L144.953,321.256L121.261,321.629L117.224,323.52C114.237,324.919 112.343,326.311 109.942,328.876C105.48,333.643 104.258,336.927 103.944,345.002L103.702,351.226L84.01,351.226L83.768,345.002C83.454,336.935 82.231,333.642 77.785,328.892C74.416,325.294 70.469,322.943 66.111,321.939C64.775,321.631 58.976,321.374 53.224,321.366L42.765,321.355L43.062,325.919C43.561,333.588 46.56,339.481 52.124,343.726C56.505,347.068 59.943,348.051 68.25,348.337L75.586,348.59L75.586,370.884L82.506,377.782L89.427,384.681L89.427,393.272L81.399,393.261L67.281,379.24ZM88.757,308.214L88.918,303.65L80.569,303.65L80.569,313.103L88.596,312.778L88.757,308.214ZM107.143,313.055L107.143,303.65L98.839,303.65L98.839,307.984C98.839,310.367 99.005,312.483 99.208,312.686C99.411,312.889 101.279,313.055 103.36,313.055L107.143,313.055ZM88.873,294.245L88.873,284.841L80.569,284.841L80.569,294.245L88.873,294.245ZM107.143,294.245L107.143,284.841L98.839,284.841L98.839,294.245L107.143,294.245ZM88.723,372.375L83.891,367.524L83.891,359.524L103.822,359.524L103.822,367.524L98.989,372.375C96.331,375.044 94.021,377.227 93.856,377.227C93.691,377.227 91.381,375.044 88.723,372.375ZM61.68,339.398C58.19,338.152 55.57,336.195 53.927,333.605C51.488,329.763 51.589,329.651 57.492,329.651C63.839,329.651 67.421,330.653 70.508,333.294C72.457,334.961 75.032,338.7 75.032,339.863C75.032,340.484 63.605,340.085 61.68,339.398ZM112.68,339.922C112.68,338.706 115.211,334.999 117.204,333.294C120.291,330.653 123.873,329.651 130.22,329.651C136.197,329.651 136.32,329.803 133.58,333.829C132.406,335.554 130.722,337.066 128.736,338.179C125.901,339.767 125.241,339.898 119.185,340.082C115.607,340.19 112.68,340.118 112.68,339.922L112.68,339.922ZM36.831,286.501L36.831,278.756L22.99,278.756L22.99,270.457L36.831,270.457L36.831,259.946L22.99,259.946L22.99,251.539L32.54,251.768C43.033,252.02 45.942,252.714 50.584,256.074C53.201,257.968 60.72,266.604 60.459,267.415C60.195,268.237 37.73,294.169 37.246,294.21C37.018,294.23 36.831,290.76 36.831,286.501ZM138.741,281.071C132.52,273.864 127.351,267.719 127.253,267.415C126.992,266.604 134.511,257.968 137.128,256.074C141.77,252.714 144.679,252.02 155.172,251.768L164.722,251.539L164.722,259.946L150.881,259.946L150.881,270.457L164.722,270.457L164.722,278.756L150.881,278.756L150.881,286.501C150.881,290.76 150.694,294.229 150.466,294.21C150.238,294.19 144.961,288.278 138.741,281.071L138.741,281.071Z" style="fill-rule:nonzero;"/>
    </g>
</svg>
