<?xml version="1.0" encoding="UTF-8" standalone="no"?>
<!DOCTYPE svg PUBLIC "-//W3C//DTD SVG 1.1//EN" "http://www.w3.org/Graphics/SVG/1.1/DTD/svg11.dtd">
<svg width="100%" height="100%" viewBox="0 0 142 142" version="1.1" xmlns="http://www.w3.org/2000/svg" xmlnsXlink="http://www.w3.org/1999/xlink" xmlSpace="preserve" xmlnsSerif="http://www.serif.com/" style="fill-rule:evenodd;clip-rule:evenodd;stroke-linejoin:round;stroke-miterlimit:2;">
    <g id="Layer-1" serifId="Layer 1" transform="matrix(1,0,0,1,-126.491,-288.63)">
        <path id="path397" d="M186.618,429.607C160.459,425.539 138.286,406.721 130.059,381.604C121.549,355.626 128.515,327.713 148.265,308.644C159.102,298.182 172.322,291.625 186.965,289.451C194.338,288.356 200.371,288.356 207.745,289.451C222.387,291.625 235.607,298.182 246.444,308.644C272.057,333.372 275.476,372.227 254.591,401.234C248.523,409.663 238.123,418.425 228.446,423.264C216.392,429.291 200.288,431.733 186.618,429.607ZM183.826,407.94C185.702,401.485 184.58,393.466 181.01,387.809C175.536,379.138 164.553,374.525 154.677,376.75C150.64,377.659 147.472,379.025 147.472,379.857C147.472,380.972 150.034,385.876 152.636,389.74C157.237,396.575 165.698,404.08 172.934,407.746C176.382,409.492 182.033,411.571 182.521,411.273C182.746,411.136 183.333,409.636 183.826,407.94ZM221.779,407.744C229.011,404.08 237.474,396.573 242.074,389.74C244.721,385.808 247.237,380.967 247.237,379.806C247.237,378.558 239.088,376.159 234.877,376.167C224.511,376.187 214.862,382.872 211.395,392.436C209.487,397.699 209.487,405.012 211.394,409.56L212.267,411.644L215.794,410.316C217.735,409.586 220.427,408.428 221.779,407.744L221.779,407.744ZM202.963,374.612C211.971,369.907 211.971,357.473 202.963,352.767C200.925,351.702 199.173,351.219 197.355,351.219C193.822,351.219 189.287,353.593 187.251,356.508C184.349,360.665 184.345,366.744 187.243,370.871C189.29,373.787 193.828,376.161 197.355,376.161C199.173,376.161 200.925,375.677 202.963,374.612L202.963,374.612ZM194.688,366.717C192.107,364.312 193.881,359.533 197.355,359.533C199.478,359.533 201.234,361.414 201.234,363.69C201.234,365.965 199.478,367.847 197.355,367.847C196.555,367.847 195.355,367.338 194.688,366.717ZM166.541,350.124C172.365,348.634 176.392,346.364 181.884,341.476C188.876,335.252 195.465,333.326 202.66,335.403C206.804,336.599 208.798,337.828 213.569,342.125C221.427,349.202 227.622,351.219 241.506,351.219C251.946,351.219 251.254,351.75 249.424,345.148C245.274,330.169 234.063,317.017 219.85,310.449C205.948,304.026 188.762,304.026 174.859,310.449C160.646,317.017 149.436,330.169 145.285,345.148C143.456,351.75 142.763,351.219 153.203,351.219C160.408,351.219 163.135,350.995 166.541,350.124Z" style="fill-rule:nonzero;"/>
    </g>
</svg>
